<svg width="32" height="32" viewBox="0 0 32 32" fill="none" xmlns="http://www.w3.org/2000/svg">
<path d="M11.1111 20.8891L16 16.0002M16 16.0002L20.8889 11.1113M16 16.0002L11.1111 11.1113M16 16.0002L20.8889 20.8891M15.9999 30.6667C11.444 30.6667 9.16611 30.6667 7.36924 29.9224C4.97341 28.93 3.06993 27.0265 2.07754 24.6307C1.33325 22.8338 1.33325 20.5559 1.33325 16C1.33325 11.4441 1.33325 9.1662 2.07754 7.36933C3.06993 4.9735 4.97341 3.07002 7.36924 2.07763C9.16611 1.33334 11.444 1.33334 15.9999 1.33334C20.5558 1.33334 22.8337 1.33334 24.6306 2.07763C27.0264 3.07002 28.9299 4.9735 29.9223 7.36933C30.6666 9.1662 30.6666 11.4441 30.6666 16C30.6666 20.5559 30.6666 22.8338 29.9223 24.6307C28.9299 27.0265 27.0264 28.93 24.6306 29.9224C22.8337 30.6667 20.5558 30.6667 15.9999 30.6667Z" stroke="#F2F5FA" stroke-width="2" stroke-linecap="round" stroke-linejoin="round"/>
</svg>
