<svg width="26" height="26" viewBox="0 0 26 26" fill="none" xmlns="http://www.w3.org/2000/svg">
<path d="M16.4619 7.66667C14.7816 7.66667 13.9416 7.66667 13.2999 8.04036C12.7353 8.36907 12.2764 8.89357 11.9888 9.53867C11.6619 10.2721 11.6619 11.2321 11.6619 13.1524V25M8.66188 14.3333H16.6619M1 13C1 9.64852 1 7.97277 1.47139 6.62565C2.31568 4.21279 4.21279 2.31568 6.62565 1.47139C7.97277 1 9.64852 1 13 1C16.3515 1 18.0272 1 19.3744 1.47139C21.7872 2.31568 23.6843 4.21279 24.5287 6.62565C25 7.97277 25 9.64852 25 13C25 16.3515 25 18.0272 24.5287 19.3744C23.6843 21.7872 21.7872 23.6843 19.3744 24.5287C18.0272 25 16.3515 25 13 25C9.64852 25 7.97277 25 6.62565 24.5287C4.21279 23.6843 2.31568 21.7872 1.47139 19.3744C1 18.0272 1 16.3515 1 13Z" stroke="#475569" stroke-width="2" stroke-linecap="round" stroke-linejoin="round"/>
</svg>
