<svg width="56" height="77" viewBox="0 0 56 77" fill="none" xmlns="http://www.w3.org/2000/svg">
<rect x="9" y="20" width="22" height="46" fill="#F86B05"/>
<path d="M0.625 38.9688V35.5312H9.375V61.9961L12.1289 62.582V66H0.917969V62.582L3.67188 61.9961V39.5547L0.625 38.9688ZM27.207 62.582L29.9609 61.9961V48.8711H26.8164V44.8672H29.9609V42.5234C29.9609 40.1536 30.6445 38.3307 32.0117 37.0547C33.3789 35.7656 35.2995 35.1211 37.7734 35.1211C38.2552 35.1211 38.7435 35.1602 39.2383 35.2383C39.7461 35.3034 40.2995 35.401 40.8984 35.5312L40.4102 39.7695C40.0977 39.7174 39.7917 39.6719 39.4922 39.6328C39.2057 39.5938 38.8672 39.5742 38.4766 39.5742C37.5521 39.5742 36.849 39.8281 36.3672 40.3359C35.8984 40.8438 35.6641 41.5729 35.6641 42.5234V44.8672H39.8633V48.8711H35.6641V61.9961L38.418 62.582V66H27.207V62.582ZM50.1953 39.6914V44.8672H53.9062V48.8711H50.1953V59.6328C50.1953 60.4531 50.3646 61.0391 50.7031 61.3906C51.0417 61.7422 51.4974 61.918 52.0703 61.918C52.4609 61.918 52.7995 61.9049 53.0859 61.8789C53.3854 61.8398 53.7174 61.7812 54.082 61.7031L54.5703 65.8242C53.9323 66.0195 53.3008 66.1628 52.6758 66.2539C52.0508 66.3581 51.3737 66.4102 50.6445 66.4102C48.6784 66.4102 47.1615 65.8698 46.0938 64.7891C45.0391 63.7083 44.5117 61.9961 44.5117 59.6523V48.8711H41.4062V44.8672H44.5117V39.6914H50.1953Z" fill="#475569"/>
<path d="M13.8281 62.582L16.582 61.9961V48.8906L13.5352 48.3047V44.8672H22.2852V61.9961L25.0195 62.582V66H13.8281V62.582ZM22.2852 39.8086H16.582V35.5312H22.2852V39.8086Z" fill="white"/>
<rect x="14" y="16" width="12" height="4" fill="#F86B05"/>
<rect x="19" width="2" height="16" fill="#F86B05"/>
</svg>
