<svg width="122" height="48" viewBox="0 0 122 48" fill="none" xmlns="http://www.w3.org/2000/svg">
<g clip-path="url(#clip0_355_73)">
<path d="M58.0597 19.0264H72.886L39.2211 48L53.2036 26.4445H39L70.3511 0C66.3203 6.23816 62.3006 12.4575 58.0597 19.0264Z" fill="#FDB417"/>
<path d="M2.01906 30.458H11.1492C11.2847 30.459 11.4144 30.5143 11.5102 30.6121C11.6061 30.7098 11.6603 30.8421 11.6613 30.9803V31.871C11.6603 32.0092 11.6061 32.1415 11.5102 32.2392C11.4144 32.337 11.2847 32.3923 11.1492 32.3933H0.504742C0.436146 32.3956 0.367852 32.3831 0.30435 32.3565C0.240847 32.33 0.183574 32.29 0.136296 32.2393C0.0875795 32.1904 0.0493278 32.1318 0.0239598 32.0671C-0.00140814 32.0024 -0.0133405 31.9331 -0.0110827 31.8635V19.8869C-0.0133405 19.8173 -0.00140814 19.748 0.0239598 19.6833C0.0493278 19.6186 0.0875795 19.56 0.136296 19.5112C0.183131 19.4598 0.240326 19.4195 0.303936 19.3929C0.367546 19.3663 0.436057 19.3541 0.504742 19.3571H11.0276C11.1631 19.3581 11.2928 19.4134 11.3886 19.5112C11.4845 19.6089 11.5388 19.7412 11.5397 19.8794V20.7701C11.5422 20.8401 11.53 20.9098 11.504 20.9746C11.4779 21.0394 11.4386 21.0978 11.3887 21.1459C11.3411 21.1962 11.2838 21.2359 11.2203 21.2625C11.1569 21.289 11.0887 21.3017 11.0202 21.2999H2.01906V30.458ZM3.61443 25.1781C3.6154 25.0399 3.66966 24.9076 3.7655 24.8098C3.86134 24.7121 3.99104 24.6567 4.12657 24.6558H10.3165C10.4501 24.6596 10.577 24.7163 10.6704 24.8137C10.7639 24.9112 10.8167 25.0418 10.8176 25.1781V26.0687C10.8196 26.1387 10.8072 26.2083 10.7811 26.273C10.7551 26.3377 10.7161 26.3962 10.6665 26.4445C10.5653 26.5362 10.4333 26.5847 10.2981 26.5798H4.12657C3.99128 26.5847 3.85934 26.5362 3.75812 26.4445C3.70856 26.3962 3.6695 26.3377 3.64348 26.273C3.61746 26.2083 3.60505 26.1387 3.60706 26.0687L3.61443 25.1781ZM15.7732 19.8945C15.7714 19.8246 15.7839 19.755 15.8099 19.6903C15.8359 19.6256 15.8748 19.5672 15.9242 19.5187C15.9714 19.4677 16.0286 19.4276 16.0921 19.4011C16.1557 19.3745 16.224 19.3621 16.2927 19.3646H17.398C17.4666 19.3623 17.5349 19.3749 17.5984 19.4014C17.6619 19.428 17.7192 19.4679 17.7665 19.5187C17.8158 19.5672 17.8548 19.6256 17.8808 19.6903C17.9068 19.755 17.9193 19.8246 17.9175 19.8945V30.458H26.3918C26.4603 30.4566 26.5283 30.4696 26.5917 30.4961C26.655 30.5226 26.7124 30.5621 26.7602 30.6121C26.8096 30.6606 26.8486 30.719 26.8746 30.7837C26.9006 30.8484 26.9131 30.918 26.9113 30.9879V31.8785C26.9131 31.9484 26.9006 32.0179 26.8746 32.0826C26.8486 32.1473 26.8096 32.2058 26.7602 32.2543C26.7124 32.3043 26.655 32.3438 26.5917 32.3703C26.5283 32.3968 26.4603 32.4097 26.3918 32.4084H16.2706C16.135 32.4074 16.0053 32.352 15.9095 32.2543C15.8137 32.1565 15.7594 32.0242 15.7584 31.886L15.7732 19.8945ZM32.2685 30.458H41.3986C41.4671 30.4569 41.535 30.4699 41.5984 30.4964C41.6617 30.5229 41.7191 30.5622 41.7671 30.6121C41.8158 30.6609 41.854 30.7195 41.8794 30.7842C41.9048 30.8489 41.9167 30.9182 41.9144 30.9879V31.8785C41.9167 31.9481 41.9048 32.0175 41.8794 32.0822C41.854 32.1468 41.8158 32.2055 41.7671 32.2543C41.7191 32.3041 41.6617 32.3435 41.5984 32.3699C41.535 32.3964 41.4671 32.4095 41.3986 32.4084H30.7579C30.6911 32.4079 30.6251 32.394 30.5636 32.3675C30.5021 32.3409 30.4463 32.3023 30.3994 32.2538C30.3526 32.2053 30.3155 32.1479 30.2904 32.0848C30.2653 32.0216 30.2526 31.9541 30.2531 31.886V19.8869C30.2509 19.8173 30.2628 19.748 30.2882 19.6833C30.3135 19.6186 30.3518 19.56 30.4005 19.5112C30.4473 19.4598 30.5045 19.4195 30.5681 19.3929C30.6317 19.3663 30.7003 19.3541 30.7689 19.3571H41.266C41.3346 19.3546 41.403 19.367 41.4665 19.3936C41.53 19.4201 41.5873 19.4602 41.6344 19.5112C41.6838 19.5597 41.7227 19.6181 41.7487 19.6828C41.7748 19.7475 41.7873 19.817 41.7855 19.8869V20.7776C41.785 20.8467 41.7712 20.915 41.7448 20.9786C41.7184 21.0423 41.68 21.1 41.6318 21.1485C41.5836 21.197 41.5264 21.2353 41.4637 21.2613C41.4009 21.2873 41.3337 21.3004 41.266 21.2999H32.2685V30.458ZM33.8676 25.1781C33.8685 25.0399 33.9228 24.9076 34.0186 24.8098C34.1145 24.7121 34.2442 24.6567 34.3797 24.6558H40.5549C40.6233 24.6546 40.6913 24.6677 40.7546 24.6942C40.818 24.7207 40.8754 24.76 40.9233 24.8098C40.972 24.8587 41.0103 24.9173 41.0357 24.982C41.061 25.0466 41.073 25.116 41.0707 25.1856V26.0763C41.0732 26.1459 41.0614 26.2153 41.036 26.28C41.0106 26.3448 40.9722 26.4034 40.9233 26.452C40.8217 26.5431 40.6901 26.5914 40.5549 26.5873H34.3797C34.2444 26.5922 34.1125 26.5437 34.0113 26.452C33.9617 26.4037 33.9226 26.3452 33.8966 26.2805C33.8706 26.2158 33.8582 26.1462 33.8602 26.0763L33.8676 25.1781ZM44.2136 19.8869C44.1834 19.8072 44.1636 19.7239 44.1546 19.6389C44.1546 19.4548 44.2541 19.3646 44.453 19.3646H46.0558C46.1252 19.3648 46.1932 19.385 46.2519 19.4229C46.3105 19.4608 46.3575 19.5148 46.3874 19.5788L52.5331 31.871C52.5632 31.9496 52.5842 32.0316 52.5957 32.1152C52.5957 32.3031 52.4925 32.3933 52.2936 32.3933H50.7719C50.7057 32.3953 50.6406 32.3756 50.5862 32.337C50.5319 32.2984 50.491 32.2431 50.4698 32.1791L44.2136 19.8869ZM53.4247 30.0333C53.4066 30.0673 53.3807 30.0963 53.3493 30.1179C53.3179 30.1395 53.2818 30.153 53.2442 30.1574C53.2044 30.1632 53.1638 30.1538 53.1305 30.1309C53.0971 30.1079 53.0733 30.0732 53.0636 30.0333L52.2825 28.6204C52.249 28.5324 52.2279 28.44 52.2199 28.346C52.2242 28.2695 52.2456 28.1949 52.2825 28.1281L56.3723 19.6389C56.4312 19.4961 56.4939 19.4134 56.5528 19.3947C56.6108 19.3737 56.6719 19.3636 56.7334 19.3646H58.0303C58.2514 19.3646 58.3619 19.4661 58.3619 19.669C58.3471 19.7433 58.3261 19.8162 58.2993 19.8869L53.4247 30.0333ZM65.4176 19.8869C65.4847 19.7326 65.5949 19.6018 65.7345 19.5112C65.8617 19.4151 66.0148 19.3613 66.173 19.3571H67.2562C67.4143 19.3617 67.5673 19.4155 67.6946 19.5112C67.8377 19.6066 67.9565 19.7354 68.041 19.8869L74.2788 31.871C74.3066 31.9501 74.3263 32.032 74.3377 32.1152C74.3377 32.3031 74.2383 32.3933 74.0356 32.3933H72.6502C72.5347 32.3882 72.4227 32.3503 72.3271 32.2839C72.2314 32.2176 72.1558 32.1253 72.1086 32.0175L70.6864 29.3118H64.8134C64.6107 29.3118 64.5113 29.2216 64.5113 29.0375C64.5202 28.9526 64.5401 28.8692 64.5702 28.7895L65.0529 27.8387C65.0993 27.7304 65.1748 27.6377 65.2706 27.5712C65.3664 27.5047 65.4787 27.4672 65.5945 27.4629H69.7248L66.6888 21.4202L61.3832 32.0213C61.3372 32.1299 61.2585 32.2207 61.1584 32.2806C61.0658 32.3484 60.9555 32.3863 60.8415 32.3896H59.5409C59.3383 32.3896 59.2388 32.2994 59.2388 32.1115C59.2483 32.0279 59.2681 31.9458 59.2978 31.8672L65.4176 19.8869ZM74.9973 19.8869C74.9982 19.7487 75.0525 19.6164 75.1483 19.5187C75.2442 19.4209 75.3739 19.3656 75.5094 19.3646H87.4692C87.5378 19.3618 87.6063 19.3741 87.6698 19.4007C87.7334 19.4273 87.7906 19.4675 87.8376 19.5187C87.9275 19.6219 87.975 19.7565 87.9703 19.8945V20.7851C87.975 20.9231 87.9275 21.0577 87.8376 21.1609C87.7902 21.2114 87.7329 21.2513 87.6694 21.2778C87.606 21.3044 87.5377 21.317 87.4692 21.315H75.5094C75.4409 21.3168 75.3727 21.304 75.3093 21.2775C75.2458 21.251 75.1885 21.2113 75.141 21.1609C75.091 21.1128 75.0517 21.0544 75.0257 20.9896C74.9996 20.9248 74.9874 20.8551 74.9899 20.7851L74.9973 19.8869ZM80.3913 23.3593C80.3815 23.2883 80.388 23.216 80.4102 23.1481C80.4325 23.0802 80.4699 23.0184 80.5196 22.9678C80.5693 22.9171 80.6298 22.8789 80.6964 22.8562C80.763 22.8335 80.8339 22.8269 80.9035 22.8369H82.0456C82.1152 22.8269 82.1861 22.8335 82.2527 22.8562C82.3193 22.8789 82.3798 22.9171 82.4295 22.9678C82.4792 23.0184 82.5166 23.0802 82.5389 23.1481C82.5611 23.216 82.5676 23.2883 82.5578 23.3593V31.871C82.5625 32.009 82.515 32.1435 82.4251 32.2468C82.3777 32.2973 82.3204 32.3372 82.257 32.3637C82.1935 32.3902 82.1253 32.4029 82.0567 32.4008H80.9145C80.8459 32.4029 80.7777 32.3902 80.7142 32.3637C80.6508 32.3372 80.5935 32.2973 80.5461 32.2468C80.4562 32.1435 80.4087 32.009 80.4134 31.871L80.3913 23.3593ZM91.0063 21.2999C91.0098 21.0597 91.0665 20.8233 91.1721 20.6085C91.2814 20.3738 91.4298 20.1602 91.6105 19.9771C91.7869 19.7988 91.9911 19.6515 92.2148 19.5412C92.4254 19.4335 92.6571 19.3757 92.8927 19.3721H102.686C102.927 19.3718 103.164 19.4298 103.379 19.5412C103.602 19.6547 103.806 19.8045 103.983 19.9847C104.162 20.1681 104.309 20.3816 104.418 20.616C104.523 20.8308 104.58 21.0672 104.584 21.3074V30.458C104.58 30.6983 104.523 30.9346 104.418 31.1495C104.309 31.3825 104.162 31.5948 103.983 31.777C103.807 31.9595 103.603 32.1107 103.379 32.2242C103.164 32.3357 102.927 32.3936 102.686 32.3933H92.8927C92.6571 32.3897 92.4254 32.3319 92.2148 32.2242C91.7554 31.9964 91.3844 31.618 91.161 31.1495C91.0554 30.9346 90.9988 30.6983 90.9952 30.458L91.0063 21.2999ZM93.0843 30.458H102.517V21.2999H93.0843V30.458ZM117.571 19.3646C118.103 19.3584 118.631 19.4619 119.122 19.669C119.581 19.866 119.996 20.1533 120.346 20.5145C120.687 20.8762 120.961 21.2975 121.156 21.7584C121.425 22.4209 121.517 23.1444 121.422 23.8549C121.327 24.5654 121.048 25.2373 120.615 25.8019C120.068 26.4779 119.316 26.9487 118.478 27.1397L121.912 31.871C121.968 31.9637 121.998 32.0702 122 32.1791C122 32.3219 121.919 32.3933 121.76 32.3933H120.114C120.044 32.3911 119.977 32.3704 119.918 32.3332C119.852 32.2951 119.796 32.2424 119.752 32.1791L116.167 27.26H113.85C113.781 27.2625 113.713 27.2501 113.649 27.2235C113.586 27.197 113.529 27.1569 113.481 27.1059C113.432 27.0574 113.393 26.999 113.367 26.9343C113.341 26.8696 113.329 26.8 113.33 26.7301V25.9297C113.329 25.8598 113.341 25.7903 113.367 25.7256C113.393 25.6609 113.432 25.6024 113.481 25.5539C113.529 25.503 113.586 25.4629 113.649 25.4363C113.713 25.4097 113.781 25.3973 113.85 25.3998H117.468C117.74 25.4115 118.012 25.3655 118.265 25.2646C118.519 25.1637 118.75 25.0102 118.942 24.8138C119.135 24.6174 119.285 24.3824 119.384 24.1236C119.483 23.8648 119.528 23.5879 119.517 23.3104C119.522 23.0394 119.471 22.7704 119.366 22.521C119.262 22.2717 119.108 22.0476 118.912 21.8636C118.525 21.4822 118.006 21.2728 117.468 21.2811H111.757V31.871C111.756 32.0092 111.702 32.1415 111.606 32.2392C111.51 32.337 111.381 32.3923 111.245 32.3933H110.165C110.03 32.3923 109.9 32.337 109.804 32.2392C109.709 32.1415 109.654 32.0092 109.653 31.871V19.8869C109.652 19.817 109.664 19.7475 109.69 19.6828C109.716 19.6181 109.755 19.5597 109.804 19.5112C109.852 19.4602 109.909 19.4201 109.972 19.3936C110.036 19.367 110.104 19.3546 110.173 19.3571L117.571 19.3646Z" fill="#1F2430"/>
</g>
<defs>
<clipPath id="clip0_355_73">
<rect width="122" height="48" fill="white"/>
</clipPath>
</defs>
</svg>
